<?xml version="1.0" encoding="UTF-8"?>
<svg xmlns="http://www.w3.org/2000/svg" version="1.1" width="240" height="240" viewBox="0 0 1080 1080">
  <!-- Generated from resources/logo/havResonance-light.source.svg by scripts/create-logo-assets.mjs. Do not edit directly. -->
  <path fill="#000" d="M 390.6 489.6 c 4.7 58.1 .4 120.9 2 179.2 0 10.8 17.6 10.1 17.9 .8 -6.9 -134.6 50.8 -382.8 -167.5 -306.7 -14.3 6.7 -31.3 15.3 -43 26 -5.2 -10 1.2 -188.5 -2.8 -204.6 C 192.6 154.8 164 132 134.4 133.5 v 375.1 c 0 6.9 58.6 -19.1 80.8 -56.8 51.1 -71.3 161.6 -52.9 175.4 37.7 h 0 Z M 337 632 v -172.1 c .3 -9 -16.3 -12.1 -17.2 -1 v 173.7 c -.9 13 18.3 12.7 17.2 -.6 h 0 Z M 249.1 547.4 l 3.3 11.9 c 2.3 6.7 14.3 5.9 16.1 -.9 1.9 -7.1 11.6 -33.8 11.6 -31.7 v 58.8 c -.2 11 17.2 11.2 17.1 0 v -103.8 c .4 -10.4 -14.8 -11.5 -17.2 -1.9 -4.4 13.6 -13 50.3 -18.1 50.3 -5.1 0 -3 -21.2 -13.7 -19.1 -7 1.2 -7.9 8.2 -11.7 10.4 -2.6 1.5 -5.3 2.3 -8.9 2.3 H 20 c -4.6 0 -7.6 2.5 -8 6.6 -.2 2.7 1.8 7.3 5.9 7.3 h 219.7 c 7.3 0 9.7 3.5 11.4 9.6 h 0 v .2 Z M 373.6 580.3 c -.1 -16.1 0 -53.5 -.2 -69.4 0 -10 -16.4 -11.7 -17.6 -1 v 112.8 c .9 11.6 18.8 10.1 17.8 -1.9 v -40.5 h 0 Z M 198.3 736.8 v -141.9 c -2.1 -29.9 -36.8 -43.6 -63.9 -42.4 v 6.4 s 0 165.6 0 165.6 c .4 33.3 31.5 54.8 63.8 52.7 v -40.4 h .1 Z"/>
  <path fill="#c40000" d="M 847.7 304.2 c 36.2 64.7 28.6 151.2 -19.2 208.1 -4.8 4.5 -1.2 11.8 5.5 11.4 h 125.8 c 3.8 0 6.8 3.1 6.8 6.9 s -3 7 -6.8 7 h -158.3 c -8 0 -20.3 14.1 -33.1 19.8 6.5 9.4 20.3 26.8 26.7 36.3 h 0 c 44.9 59.8 95.4 123.2 136.9 183.4 -66.7 4 -90.7 -9.4 -125.4 -63.1 -41.3 -55.9 -87.3 -117.2 -129.1 -172.9 -3.1 -5 -13.8 -2.7 -18.5 -3.3 -11 -.2 -10.7 19.4 -13.6 26.4 -1.2 6.2 -16.5 9.4 -19.2 -.7 -3.4 -13.6 -8.6 -27.1 -12.5 -37.8 v 70.8 c -.4 11.3 -19.1 10.7 -18.3 -1 v -135.4 c 3 -12.7 19.7 -8.5 20.4 2.7 l 10.9 43 c 2.2 8.2 4.1 23.8 6.6 23.8 4 -4.8 0 -35.3 19.3 -28.5 4.7 2.5 6.9 9.4 13.4 9.2 100 13.6 187.2 -94.2 120.2 -180.8 -18.2 -15.9 -48.2 -33.6 -84.2 -33.6 h -175.5 c -18.3 -1.1 -39.5 -21.3 -44.6 -38.2 -.6 -5.2 -7.3 -18.9 -1.7 -23 64 -.9 188.2 -1.1 252.7 -.7 47.7 0 91.5 29.5 114.8 70.2 h 0 Z M 482.3 397 c 5.2 0 9.5 4.3 9.5 9.5 v 361.1 c 0 5.2 -4.3 9.5 -9.5 9.5 s -9.5 -4.3 -9.5 -9.5 v -361.1 c 0 -5.2 4.3 -9.5 9.5 -9.5 Z M 523.8 328.1 c 5.1 0 9.3 4.1 9.3 9.3 v 357.3 c 0 5.1 -4.1 9.3 -9.3 9.3 s -9.3 -4.1 -9.3 -9.3 V 337.3 c 0 -5.1 4.1 -9.3 9.3 -9.3 h 0 Z M 440.6 435 c 5.1 0 9.2 4.1 9.2 9.2 v 277.1 c 0 5.1 -4.1 9.2 -9.2 9.2 s -9.2 -4.1 -9.2 -9.2 v -277.1 c 0 -5.1 4.1 -9.2 9.2 -9.2 Z M 565.4 397.8 c 5.1 0 9.3 4.2 9.3 9.3 v 229.8 c 0 5.1 -4.2 9.3 -9.3 9.3 s -9.3 -4.2 -9.3 -9.3 v -229.8 c 0 -5.1 4.2 -9.3 9.3 -9.3 Z"/>
  <path fill="#000" d="M52 812.75L71.85 812.75L71.85 860.36Q76.82 856.11 80.77 853.77Q84.73 851.42 87.79 850.36Q90.85 849.30 93.18 849.11Q95.50 848.93 97.29 848.93Q100.55 848.93 103.18 850.21Q105.82 851.50 107.68 853.62Q109.54 855.74 110.55 858.49Q111.56 861.24 111.56 864.09L111.56 944L91.71 944L91.71 873.69Q91.71 871.93 91.59 870.25Q91.47 868.56 90.85 867.24Q90.23 865.92 88.84 865.12Q87.44 864.31 84.88 864.31Q81.08 864.31 77.86 865.96Q74.64 867.61 71.85 869.81L71.85 944L52 944ZM148.78 945.32Q145.06 945.32 141.49 943.49Q137.92 941.66 135.13 938.58Q132.34 935.50 130.63 931.55Q128.93 927.59 128.93 923.27Q128.93 919.68 129.32 916.39Q129.70 913.09 131.10 909.98Q132.50 906.87 135.09 903.86Q137.69 900.86 142.11 897.82Q146.53 894.78 153.01 891.63Q159.48 888.48 168.63 885.11L168.63 878.38Q168.63 873.10 167.78 870.25Q166.93 867.39 165.53 866.07Q164.14 864.75 162.35 864.53Q160.57 864.31 158.71 864.31Q156.85 864.31 155.06 864.53Q153.28 864.75 151.88 866.07Q150.49 867.39 149.63 870.25Q148.78 873.10 148.78 878.38L128.93 878.38Q129.01 871.71 131.14 866.25Q133.27 860.80 137.15 856.95Q141.03 853.11 146.49 851.02Q151.96 848.93 158.71 848.93Q166.69 848.93 172.32 851.57Q177.94 854.21 181.55 858.38Q185.15 862.55 186.82 867.83Q188.49 873.10 188.49 878.38L188.49 920.56Q188.49 925.84 188.87 930.16Q189.26 934.48 189.73 937.55Q190.04 939.39 190.35 940.96Q190.66 942.54 191.05 944L171.27 944L168.63 929.94Q166.77 933.45 164.83 936.31Q162.90 939.17 160.57 941.14Q158.24 943.12 155.37 944.22Q152.50 945.32 148.78 945.32ZM148.78 918.29Q148.78 921.81 149.63 924.04Q150.49 926.28 151.88 927.59Q153.28 928.91 155.06 929.42Q156.85 929.94 158.71 929.94Q160.57 929.94 162.35 928.88Q164.14 927.81 165.53 926.50Q166.38 925.76 167.12 924.92Q167.86 924.08 168.63 923.05L168.63 897.13Q163.59 900.27 159.87 902.76Q156.15 905.25 153.71 907.67Q151.26 910.09 150.02 912.62Q148.78 915.14 148.78 918.29ZM220.82 944L198.49 850.25L218.34 850.25L230.75 920.56L243.16 850.25L263.01 850.25L240.83 944Z"/><path fill="#c40000" d="M333.04 944L313.66 883.06L299.23 883.06L299.23 944L280 944L280 812.75L304.04 812.75Q316.66 812.75 325 815.28Q333.34 817.80 338.30 822.42Q343.26 827.03 345.29 833.51Q347.31 840 347.31 847.91Q347.31 852.74 346.60 856.62Q345.89 860.50 344.68 863.54Q343.48 866.58 341.98 868.89Q340.48 871.20 338.90 872.81Q335.22 876.69 330.49 878.38L352.12 944ZM299.23 869L304.04 869Q309.45 869 313.88 868.01Q318.31 867.02 321.47 864.61Q324.63 862.19 326.35 858.12Q328.08 854.06 328.08 847.91Q328.08 841.75 326.35 837.69Q324.63 833.62 321.47 831.21Q318.31 828.79 313.88 827.80Q309.45 826.81 304.04 826.81L299.23 826.81ZM392.92 945.32Q385.70 945.32 380.33 943.01Q374.96 940.70 371.35 934.99Q367.75 929.28 365.95 919.54Q364.14 909.80 364.14 894.93Q364.14 881.67 365.95 872.85Q367.75 864.02 371.35 858.71Q374.96 853.40 380.37 851.17Q385.78 848.93 392.99 848.93Q400.20 848.93 405.61 851.17Q411.02 853.40 414.63 858.71Q418.23 864.02 420.04 872.85Q421.84 881.67 421.84 894.93L421.84 897.13L383.37 897.13L383.37 901.81Q383.37 907.09 383.52 912.14Q383.68 917.19 384.58 921.15Q385.48 925.10 387.43 927.52Q389.38 929.94 392.99 929.94Q396.67 929.94 398.63 928.33Q400.58 926.71 401.48 924.08Q402.38 921.44 402.53 918.07Q402.68 914.70 402.68 911.19L421.84 911.19Q421.84 928.77 414.63 937.04Q407.42 945.32 392.92 945.32ZM392.99 864.31Q389.38 864.31 387.43 866.66Q385.48 869 384.58 872.52Q383.68 876.03 383.52 880.13Q383.37 884.23 383.37 887.75L402.61 887.75Q402.61 884.23 402.49 880.13Q402.38 876.03 401.48 872.52Q400.58 869 398.63 866.66Q396.67 864.31 392.99 864.31ZM450.69 915.88Q452.19 919.83 454.29 922.91Q455.20 924.22 456.32 925.51Q457.45 926.79 458.80 927.78Q460.15 928.77 461.73 929.35Q463.31 929.94 465.11 929.94Q466.92 929.94 468.64 929.46Q470.37 928.99 471.72 927.89Q473.08 926.79 473.90 924.99Q474.73 923.20 474.73 920.56Q474.73 917.93 473.98 915.91Q473.23 913.90 472.32 912.51Q471.27 910.89 469.92 909.72L450.69 895.66Q446.03 892.51 443.18 889.54Q440.32 886.58 438.78 883.83Q437.24 881.08 436.75 878.56Q436.26 876.03 436.26 873.69Q436.26 868.41 438.07 863.87Q439.87 859.33 443.48 856.04Q447.08 852.74 452.49 850.84Q457.90 848.93 465.11 848.93Q469.62 848.93 473.26 849.99Q476.91 851.06 479.76 852.81Q482.62 854.57 484.80 856.81Q486.97 859.04 488.55 861.31Q492.23 866.80 493.96 873.69L479.54 878.38Q478.03 874.42 475.93 871.34Q475.03 870.03 473.90 868.78Q472.78 867.54 471.42 866.55Q470.07 865.56 468.49 864.94Q466.92 864.31 465.11 864.31Q463.31 864.31 461.58 864.79Q459.85 865.26 458.50 866.36Q457.15 867.46 456.32 869.26Q455.50 871.05 455.50 873.69Q455.50 875.45 456.25 876.91Q457 878.38 457.90 879.40Q458.95 880.65 460.30 881.60L479.54 895.66Q486.37 901.01 490.17 907.05Q493.96 913.09 493.96 920.56Q493.96 925.84 492.16 930.38Q490.36 934.92 486.75 938.21Q483.14 941.51 477.73 943.41Q472.32 945.32 465.11 945.32Q460.61 945.32 456.96 944.26Q453.32 943.19 450.43 941.47Q447.53 939.75 445.39 937.52Q443.25 935.28 441.67 932.94Q437.99 927.52 436.26 920.56ZM508.39 883.06Q508.39 880.72 508.54 877.28Q508.69 873.83 509.48 870.06Q510.26 866.29 511.99 862.48Q513.72 858.67 516.91 855.67Q520.11 852.67 525.06 850.80Q530.02 848.93 537.23 848.93Q544.45 848.93 549.40 850.80Q554.36 852.67 557.56 855.67Q560.75 858.67 562.48 862.48Q564.20 866.29 564.99 870.06Q565.78 873.83 565.93 877.28Q566.08 880.72 566.08 883.06L566.08 911.19Q566.08 913.53 565.93 916.97Q565.78 920.42 564.99 924.19Q564.20 927.96 562.48 931.77Q560.75 935.58 557.56 938.58Q554.36 941.58 549.40 943.45Q544.45 945.32 537.23 945.32Q530.02 945.32 525.06 943.45Q520.11 941.58 516.91 938.58Q513.72 935.58 511.99 931.77Q510.26 927.96 509.48 924.19Q508.69 920.42 508.54 916.97Q508.39 913.53 508.39 911.19ZM527.62 911.19Q527.62 914.70 527.77 918.07Q527.92 921.44 528.82 924.08Q529.72 926.71 531.68 928.33Q533.63 929.94 537.23 929.94Q540.84 929.94 542.79 928.33Q544.75 926.71 545.65 924.08Q546.55 921.44 546.70 918.07Q546.85 914.70 546.85 911.19L546.85 883.06Q546.85 879.55 546.70 876.18Q546.55 872.81 545.65 870.17Q544.75 867.54 542.79 865.92Q540.84 864.31 537.23 864.31Q533.63 864.31 531.68 865.92Q529.72 867.54 528.82 870.17Q527.92 872.81 527.77 876.18Q527.62 879.55 527.62 883.06ZM582.91 850.25L602.14 850.25L602.14 860.36Q606.95 856.11 610.78 853.77Q614.62 851.42 617.58 850.36Q620.55 849.30 622.80 849.11Q625.06 848.93 626.79 848.93Q629.94 848.93 632.50 850.21Q635.05 851.50 636.85 853.62Q638.66 855.74 639.63 858.49Q640.61 861.24 640.61 864.09L640.61 944L621.38 944L621.38 873.69Q621.38 871.93 621.26 870.25Q621.15 868.56 620.48 867.24Q619.80 865.92 618.33 865.12Q616.87 864.31 614.16 864.31Q610.48 864.31 607.67 865.96Q604.85 867.61 602.14 869.81L602.14 944L582.91 944ZM674.27 945.32Q670.66 945.32 667.20 943.49Q663.75 941.66 661.04 938.58Q658.34 935.50 656.69 931.55Q655.03 927.59 655.03 923.27Q655.03 919.68 655.41 916.39Q655.78 913.09 657.14 909.98Q658.49 906.87 661.01 903.86Q663.52 900.86 667.80 897.82Q672.09 894.78 678.36 891.63Q684.63 888.48 693.50 885.11L693.50 878.38Q693.50 873.10 692.67 870.25Q691.85 867.39 690.49 866.07Q689.14 864.75 687.41 864.53Q685.69 864.31 683.88 864.31Q682.08 864.31 680.35 864.53Q678.62 864.75 677.27 866.07Q675.92 867.39 675.09 870.25Q674.27 873.10 674.27 878.38L655.03 878.38Q655.11 871.71 657.17 866.25Q659.24 860.80 663 856.95Q666.75 853.11 672.05 851.02Q677.35 848.93 683.88 848.93Q691.62 848.93 697.07 851.57Q702.51 854.21 706.01 858.38Q709.50 862.55 711.12 867.83Q712.73 873.10 712.73 878.38L712.73 920.56Q712.73 925.84 713.11 930.16Q713.48 934.48 713.93 937.55Q714.23 939.39 714.53 940.96Q714.83 942.54 715.21 944L696.05 944L693.50 929.94Q691.70 933.45 689.82 936.31Q687.94 939.17 685.69 941.14Q683.43 943.12 680.65 944.22Q677.87 945.32 674.27 945.32ZM674.27 918.29Q674.27 921.81 675.09 924.04Q675.92 926.28 677.27 927.59Q678.62 928.91 680.35 929.42Q682.08 929.94 683.88 929.94Q685.69 929.94 687.41 928.88Q689.14 927.81 690.49 926.50Q691.32 925.76 692.03 924.92Q692.75 924.08 693.50 923.05L693.50 897.13Q688.62 900.27 685.01 902.76Q681.40 905.25 679.04 907.67Q676.67 910.09 675.47 912.62Q674.27 915.14 674.27 918.29ZM732.04 850.25L751.27 850.25L751.27 860.36Q756.08 856.11 759.91 853.77Q763.74 851.42 766.71 850.36Q769.68 849.30 771.93 849.11Q774.18 848.93 775.91 848.93Q779.07 848.93 781.62 850.21Q784.18 851.50 785.98 853.62Q787.78 855.74 788.76 858.49Q789.74 861.24 789.74 864.09L789.74 944L770.50 944L770.50 873.69Q770.50 871.93 770.39 870.25Q770.28 868.56 769.60 867.24Q768.93 865.92 767.46 865.12Q766 864.31 763.29 864.31Q759.61 864.31 756.79 865.96Q753.98 867.61 751.27 869.81L751.27 944L732.04 944ZM833.01 945.32Q825.80 945.32 820.84 943.05Q815.88 940.78 812.69 937.01Q809.49 933.23 807.77 928.25Q806.04 923.27 805.25 917.93Q804.46 912.58 804.31 907.20Q804.16 901.81 804.16 897.13Q804.16 892.44 804.31 887.05Q804.46 881.67 805.25 876.32Q806.04 870.98 807.77 866Q809.49 861.02 812.69 857.24Q815.88 853.47 820.84 851.20Q825.80 848.93 833.01 848.93Q840.37 848.93 845.37 850.80Q850.36 852.67 853.56 855.67Q856.75 858.67 858.48 862.48Q860.20 866.29 860.96 870.06Q861.71 873.83 861.78 877.28Q861.86 880.72 861.86 883.06L842.63 883.06Q842.63 881.89 842.59 880.06Q842.55 878.23 842.32 876.14Q842.10 874.05 841.54 871.93Q840.97 869.81 839.88 868.12Q838.79 866.44 837.14 865.37Q835.49 864.31 833.01 864.31Q829.40 864.31 827.45 866.80Q825.50 869.29 824.59 873.69Q823.69 878.08 823.54 884.09Q823.39 890.09 823.39 897.13Q823.39 904.16 823.54 910.16Q823.69 916.17 824.59 920.56Q825.50 924.96 827.45 927.45Q829.40 929.94 833.01 929.94Q836.62 929.94 838.57 928.33Q840.52 926.71 841.42 924.08Q842.32 921.44 842.47 918.07Q842.63 914.70 842.63 911.19L861.86 911.19Q861.86 913.53 861.71 916.97Q861.56 920.42 860.69 924.19Q859.83 927.96 858.06 931.77Q856.30 935.58 853.11 938.58Q849.91 941.58 844.99 943.45Q840.07 945.32 833.01 945.32ZM905.06 945.32Q897.84 945.32 892.47 943.01Q887.10 940.70 883.49 934.99Q879.89 929.28 878.09 919.54Q876.28 909.80 876.28 894.93Q876.28 881.67 878.09 872.85Q879.89 864.02 883.49 858.71Q887.10 853.40 892.51 851.17Q897.92 848.93 905.13 848.93Q912.34 848.93 917.75 851.17Q923.16 853.40 926.77 858.71Q930.37 864.02 932.18 872.85Q933.98 881.67 933.98 894.93L933.98 897.13L895.51 897.13L895.51 901.81Q895.51 907.09 895.66 912.14Q895.82 917.19 896.72 921.15Q897.62 925.10 899.57 927.52Q901.52 929.94 905.13 929.94Q908.81 929.94 910.77 928.33Q912.72 926.71 913.62 924.08Q914.52 921.44 914.67 918.07Q914.82 914.70 914.82 911.19L933.98 911.19Q933.98 928.77 926.77 937.04Q919.56 945.32 905.06 945.32ZM905.13 864.31Q901.52 864.31 899.57 866.66Q897.62 869 896.72 872.52Q895.82 876.03 895.66 880.13Q895.51 884.23 895.51 887.75L914.75 887.75Q914.75 884.23 914.63 880.13Q914.52 876.03 913.62 872.52Q912.72 869 910.77 866.66Q908.81 864.31 905.13 864.31Z"/>
</svg>
