<?xml version="1.0" encoding="UTF-8"?>
<svg xmlns="http://www.w3.org/2000/svg" version="1.1" width="240" height="240" viewBox="0 0 1080 1080">
  <defs>
    <style>
      @font-face {
        font-family: 'Oswald';
        src: url('Oswald.ttf') format('truetype');
      }
    </style>
  </defs>
  <path fill="#000" d="M 390.6 489.6 c 4.7 58.1 .4 120.9 2 179.2 0 10.8 17.6 10.1 17.9 .8 -6.9 -134.6 50.8 -382.8 -167.5 -306.7 -14.3 6.7 -31.3 15.3 -43 26 -5.2 -10 1.2 -188.5 -2.8 -204.6 C 192.6 154.8 164 132 134.4 133.5 v 375.1 c 0 6.9 58.6 -19.1 80.8 -56.8 51.1 -71.3 161.6 -52.9 175.4 37.7 h 0 Z M 337 632 v -172.1 c .3 -9 -16.3 -12.1 -17.2 -1 v 173.7 c -.9 13 18.3 12.7 17.2 -.6 h 0 Z M 249.1 547.4 l 3.3 11.9 c 2.3 6.7 14.3 5.9 16.1 -.9 1.9 -7.1 11.6 -33.8 11.6 -31.7 v 58.8 c -.2 11 17.2 11.2 17.1 0 v -103.8 c .4 -10.4 -14.8 -11.5 -17.2 -1.9 -4.4 13.6 -13 50.3 -18.1 50.3 -5.1 0 -3 -21.2 -13.7 -19.1 -7 1.2 -7.9 8.2 -11.7 10.4 -2.6 1.5 -5.3 2.3 -8.9 2.3 H 20 c -4.6 0 -7.6 2.5 -8 6.6 -.2 2.7 1.8 7.3 5.9 7.3 h 219.7 c 7.3 0 9.7 3.5 11.4 9.6 h 0 v .2 Z M 373.6 580.3 c -.1 -16.1 0 -53.5 -.2 -69.4 0 -10 -16.4 -11.7 -17.6 -1 v 112.8 c .9 11.6 18.8 10.1 17.8 -1.9 v -40.5 h 0 Z M 198.3 736.8 v -141.9 c -2.1 -29.9 -36.8 -43.6 -63.9 -42.4 v 6.4 s 0 165.6 0 165.6 c .4 33.3 31.5 54.8 63.8 52.7 v -40.4 h .1 Z"/>
  <path fill="#c40000" d="M 847.7 304.2 c 36.2 64.7 28.6 151.2 -19.2 208.1 -4.8 4.5 -1.2 11.8 5.5 11.4 h 125.8 c 3.8 0 6.8 3.1 6.8 6.9 s -3 7 -6.8 7 h -158.3 c -8 0 -20.3 14.1 -33.1 19.8 6.5 9.4 20.3 26.8 26.7 36.3 h 0 c 44.9 59.8 95.4 123.2 136.9 183.4 -66.7 4 -90.7 -9.4 -125.4 -63.1 -41.3 -55.9 -87.3 -117.2 -129.1 -172.9 -3.1 -5 -13.8 -2.7 -18.5 -3.3 -11 -.2 -10.7 19.4 -13.6 26.4 -1.2 6.2 -16.5 9.4 -19.2 -.7 -3.4 -13.6 -8.6 -27.1 -12.5 -37.8 v 70.8 c -.4 11.3 -19.1 10.7 -18.3 -1 v -135.4 c 3 -12.7 19.7 -8.5 20.4 2.7 l 10.9 43 c 2.2 8.2 4.1 23.8 6.6 23.8 4 -4.8 0 -35.3 19.3 -28.5 4.7 2.5 6.9 9.4 13.4 9.2 100 13.6 187.2 -94.2 120.2 -180.8 -18.2 -15.9 -48.2 -33.6 -84.2 -33.6 h -175.5 c -18.3 -1.1 -39.5 -21.3 -44.6 -38.2 -.6 -5.2 -7.3 -18.9 -1.7 -23 64 -.9 188.2 -1.1 252.7 -.7 47.7 0 91.5 29.5 114.8 70.2 h 0 Z M 482.3 397 c 5.2 0 9.5 4.3 9.5 9.5 v 361.1 c 0 5.2 -4.3 9.5 -9.5 9.5 s -9.5 -4.3 -9.5 -9.5 v -361.1 c 0 -5.2 4.3 -9.5 9.5 -9.5 Z M 523.8 328.1 c 5.1 0 9.3 4.1 9.3 9.3 v 357.3 c 0 5.1 -4.1 9.3 -9.3 9.3 s -9.3 -4.1 -9.3 -9.3 V 337.3 c 0 -5.1 4.1 -9.3 9.3 -9.3 h 0 Z M 440.6 435 c 5.1 0 9.2 4.1 9.2 9.2 v 277.1 c 0 5.1 -4.1 9.2 -9.2 9.2 s -9.2 -4.1 -9.2 -9.2 v -277.1 c 0 -5.1 4.1 -9.2 9.2 -9.2 Z M 565.4 397.8 c 5.1 0 9.3 4.2 9.3 9.3 v 229.8 c 0 5.1 -4.2 9.3 -9.3 9.3 s -9.3 -4.2 -9.3 -9.3 v -229.8 c 0 -5.1 4.2 -9.3 9.3 -9.3 Z"/>
  <g font-family="Oswald" font-size="150">
    <text fill="#000" x="52" y="944">hav</text>
    <text fill="#c40000" x="280" y="944">Resonance</text>
  </g>
</svg>
